<?xml version="1.0" encoding="UTF-8" standalone="no"?>
<svg xmlns="http://www.w3.org/2000/svg" viewBox="0 0 32 42" width="32" height="42"><path style="fill:#0DBC37;fill-opacity:1" d="M 16 42 L 3,34 3,7 0,7 0,4 8,4 10,0 22,0 24,4 21,4 20,2 12,2 11,4 32,4 32,7 29,7 29,34 Z" /><path style="fill:#ffffff;fill-opacity:1" d="M 15 26 l 4,4 0,-2 4,0 4,-6 -3,-5 -2,1 2,4 -2,3 -3,0 0,-2 Z m -1,-1 l 0,3 -4,0 -4,-6 2,-3 -2,-1 4,-1 2,4 -2,-1 -1,2 2,3 z m -2,-8 l -3,-2 4,-5 5,0 3,3 2,-2 0,6 -6,0 2,-2 -2,-2 -3,0" /></svg>